<svg width="173" height="38" viewBox="0 0 173 38" fill="none" xmlns="http://www.w3.org/2000/svg">
<mask id="path-1-outside-1_704_873" maskUnits="userSpaceOnUse" x="0" y="0" width="173" height="38" fill="black">
<rect fill="white" width="173" height="38"/>
<path fill-rule="evenodd" clip-rule="evenodd" d="M2 36.413L2.5359 34.4486C4.56848 26.9978 6.08768 16.9748 7.07338 4.34121C7.10437 3.70013 7.46401 3.23881 7.62494 3.04618C7.84753 2.77977 8.12882 2.52795 8.42013 2.2955C9.00415 1.82949 9.78084 1.35222 10.6664 1.35222H23.3572L22.9155 3.25798C20.8077 12.3534 19.3157 22.0715 18.4426 32.4148C19.6342 31.3482 20.7837 30.1083 21.8897 28.6899C23.4524 26.6697 24.7723 24.5731 25.8525 22.3999L25.8563 22.3923L25.8601 22.3848C26.2832 21.5565 27.0082 20.9586 27.8065 20.5158C28.602 20.0746 29.452 19.7851 30.3274 19.7851H32.0445L31.8492 21.5128C31.4699 24.8685 31.1416 27.543 30.8645 29.531C30.5937 31.474 30.3583 32.8689 30.1511 33.5842L30.1253 33.6733L30.0892 33.7586C29.8341 34.3614 29.3913 34.8983 28.9091 35.3686C28.6506 35.6207 28.3658 35.8603 28.0578 36.0446C27.7619 36.2217 27.3365 36.413 26.8265 36.413H2ZM17.9002 34.8617C18.5296 34.3849 19.1464 33.8678 19.7505 33.3104C20.9117 32.2389 22.0261 31.0184 23.0937 29.6488C24.7166 27.5511 26.0923 25.3674 27.2206 23.0975C27.4525 22.6435 27.893 22.2365 28.5422 21.8765C28.6073 21.8403 28.6719 21.806 28.736 21.7735C29.3103 21.4821 29.8408 21.3364 30.3274 21.3364C30.2664 21.8765 30.2067 22.3987 30.1483 22.9029C29.4829 28.6532 28.9939 32.0681 28.6813 33.1475C28.5422 33.4763 28.264 33.8441 27.8466 34.2512C27.4293 34.6582 27.0892 34.8617 26.8265 34.8617H17.9002ZM16.8337 33.2884C17.6522 23.0893 19.065 13.4781 21.0721 4.45479C21.1875 3.93575 21.305 3.41866 21.4243 2.90351H10.6664C10.3109 2.90351 9.87814 3.10701 9.36807 3.51402C8.85799 3.92103 8.60296 4.22629 8.60296 4.4298C7.67962 16.2797 6.28498 25.9065 4.41902 33.3104C4.28585 33.8388 4.15027 34.3559 4.0123 34.8617H14.8166C15.1721 34.8617 15.5971 34.6503 16.0918 34.2277C16.5864 33.805 16.8337 33.4919 16.8337 33.2884ZM51.2298 36.413L51.0617 35.0547C50.8793 33.5821 50.6898 32.1396 50.493 30.7272L50.4417 30.8026L49.7226 30.8656C48.5978 30.9642 47.4852 31.0982 46.3849 31.2676L46.4389 33.2909V33.3119C46.4389 33.9912 46.0607 34.4862 45.8974 34.6866C45.6791 34.9546 45.4018 35.2117 45.112 35.4518L45.108 35.4551C44.5328 35.9284 43.7607 36.413 42.8669 36.413H32.7897L34.1514 34.0738C36.5511 29.9515 40.3098 22.3286 45.4426 11.1489L47.0399 7.67002L47.1023 7.85274C47.7902 6.40228 48.3878 5.062 48.8963 3.83108L48.9082 3.80217L48.9213 3.77378C49.1812 3.20985 49.6921 2.71001 50.1439 2.31558L50.1536 2.30711L50.1634 2.29881C50.6948 1.85032 51.4437 1.35222 52.3264 1.35222H61.0371L61.2171 2.69482C61.8467 7.39178 62.6924 12.6333 63.7552 18.421C64.8331 24.1907 65.8765 29.0207 66.8846 32.9189L66.9346 33.1121V33.3119C66.9346 33.9748 66.5754 34.4634 66.4134 34.6684C66.2009 34.9375 65.9308 35.1957 65.6487 35.4368L65.6378 35.4461L65.6268 35.4551C65.0369 35.9405 64.261 36.413 63.3626 36.413H51.2298ZM62.2497 18.7065C61.1832 12.8988 60.333 7.63109 59.6993 2.90351H52.3264C52.0018 2.90351 51.6077 3.09919 51.144 3.49054C50.6957 3.8819 50.4175 4.19498 50.3093 4.4298C49.6756 5.96392 48.9105 7.65458 48.014 9.50178C49.2778 14.428 50.392 19.9601 51.3566 26.0983C51.4156 26.4734 51.4739 26.8507 51.5318 27.2302C51.5481 27.3375 51.5644 27.445 51.5807 27.5527C51.9355 29.9029 52.2691 32.3392 52.5815 34.8617H63.3626C63.7335 34.8617 64.1663 34.6582 64.6609 34.2512C65.1556 33.8285 65.4029 33.5154 65.4029 33.3119C64.3827 29.367 63.3317 24.4986 62.2497 18.7065ZM49.7034 25.4588C49.2341 22.5447 48.7306 19.774 48.1933 17.1461C47.9951 18.4849 47.7425 20.0418 47.4361 21.8151L47.4357 21.8173C47.2389 22.9472 47.0744 23.9412 46.9419 24.8009C48.0081 25 48.9338 25.2175 49.7034 25.4588ZM45.2086 26.0796C45.3632 24.9212 45.6027 23.4106 45.9273 21.5477C46.2519 19.6692 46.5147 18.0412 46.7156 16.6636C46.7935 16.1681 46.8573 15.7152 46.9071 15.3048C46.9959 14.5741 47.0402 13.9782 47.0402 13.5171C47.0402 12.7813 46.9707 12.21 46.8316 11.803C46.5649 12.3838 46.3019 12.9551 46.0425 13.5171C45.8309 13.9753 45.6218 14.4273 45.4151 14.873C41.5471 23.2139 38.5246 29.3597 36.3477 33.3104C36.0383 33.8718 35.746 34.3889 35.4708 34.8617H42.8669C43.2224 34.8617 43.6475 34.6582 44.1421 34.2512C44.6522 33.8285 44.9072 33.5154 44.9072 33.3119L44.8376 30.7055V29.9541C46.3988 29.6723 47.9831 29.461 49.5906 29.3201C49.8533 28.9343 50.0044 28.3732 50.0438 27.637C50.0508 27.5069 50.0543 27.3713 50.0543 27.2302C50.0289 27.2195 50.0031 27.2089 49.9769 27.1982C48.9675 26.7882 47.3781 26.4153 45.2086 26.0796ZM91.0648 4.15085C89.0268 13.422 87.6126 23.1423 86.8222 33.3119C86.8222 33.5154 86.5749 33.8285 86.0803 34.2512C85.5857 34.6582 85.1529 34.8617 84.7819 34.8617H74.2559C74.3814 34.3496 74.5047 33.8325 74.6259 33.3104C76.5499 25.0234 77.9336 15.4826 78.777 4.68809C78.777 4.50024 79.0243 4.21064 79.5189 3.81928C80.0135 3.41227 80.4386 3.20094 80.7941 3.18528C84.5144 2.8713 87.5283 2.68327 89.8358 2.62119C90.4044 2.6059 90.9301 2.59825 91.4129 2.59825C91.2949 3.11437 91.1789 3.63191 91.0648 4.15085ZM80.6904 1.63737C85.3278 1.24633 88.9101 1.04696 91.4129 1.04696H93.3397L93.1508 1.87338C93.704 1.4281 94.4269 1 95.2616 1C98.2422 1 100.908 1.62539 103.202 2.93823L103.208 2.94135L103.213 2.94453C104.464 3.67385 105.466 4.67981 106.202 5.94179C106.961 7.24212 107.319 8.71087 107.319 10.3001C107.319 13.0676 106.035 15.374 103.729 17.1663C103.069 17.6794 102.353 18.1241 101.583 18.5032C101.97 18.7033 102.337 18.9275 102.684 19.1772C104.374 20.3782 105.186 22.1631 105.186 24.2951V24.349L104.862 29.0654C104.868 29.7251 104.992 30.0897 105.104 30.2771C105.107 30.2836 105.124 30.3114 105.197 30.3524C105.283 30.4007 105.448 30.4665 105.734 30.5094L107.265 30.7391L107.022 32.2871C106.849 33.3936 106.549 34.3962 106.072 35.2358L105.741 35.8191L105.094 35.9728C102.26 36.6463 99.7785 37 97.6729 37C95.636 37 93.8668 36.725 92.4979 36.0419L92.4859 36.0359L92.474 36.0296C91.7533 35.654 91.1317 35.1322 90.6963 34.432C90.2585 33.7277 90.0667 32.9351 90.0667 32.1144C90.0667 30.8397 90.2538 29.1802 90.5995 27.1747L90.6012 27.1651C90.957 25.1756 91.11 23.8903 91.11 23.2149C91.11 22.5997 90.9767 22.2141 90.8108 21.9621C90.68 21.7635 90.5799 21.7211 90.4295 21.7063L89.5762 21.622C89.0712 25.477 88.6631 29.4031 88.3518 33.4004C88.322 34.0182 87.9875 34.4726 87.8328 34.6684C87.6203 34.9375 87.3502 35.1957 87.0681 35.4368L87.0572 35.4461L87.0462 35.4551C86.4563 35.9405 85.6804 36.413 84.7819 36.413H72.2975L72.7693 34.488C74.8598 25.9572 76.3555 15.9974 77.2475 4.59788C77.2801 3.94763 77.6569 3.4874 77.8039 3.31522C78.0181 3.0644 78.2869 2.82622 78.5644 2.60592C79.1267 2.14511 79.8552 1.68651 80.6904 1.63737ZM90.1887 17.2921L90.3833 17.0542L90.6558 16.9096C91.6433 16.3858 92.4393 15.5644 93.0367 14.3672C93.6509 13.1363 93.9618 11.8038 93.9618 10.3471C93.9618 8.27576 93.3963 6.69222 92.3459 5.47395C91.5188 9.33404 90.7997 13.2734 90.1887 17.2921ZM103.33 29.0148L103.655 24.2951C103.655 22.6044 103.036 21.3207 101.8 20.4441C101.151 19.9762 100.392 19.603 99.5229 19.3245C98.7344 19.0719 97.8549 18.8972 96.8846 18.8004L94.7979 18.6126C95.5396 18.5604 96.248 18.4758 96.9233 18.3587L96.9276 18.358C97.8451 18.1987 98.7014 17.9796 99.4964 17.7004C100.749 17.2608 101.849 16.6726 102.797 15.9357C104.791 14.3859 105.788 12.5074 105.788 10.3001C105.788 8.95388 105.486 7.76415 104.883 6.73097C104.281 5.69779 103.469 4.88377 102.449 4.28891C100.424 3.13049 98.0284 2.55129 95.2616 2.55129C94.9061 2.55129 94.4811 2.76262 93.9864 3.18528C93.4918 3.60795 93.2445 3.93669 93.2445 4.1715C94.7438 5.75258 95.4935 7.81112 95.4935 10.3471C95.4935 12.0378 95.1302 13.611 94.4038 15.0669C93.6773 16.5227 92.6649 17.595 91.3665 18.2838C91.264 18.4091 91.1712 18.5384 91.0882 18.6719C90.8078 19.1221 90.6378 19.6189 90.5782 20.1623C90.599 20.1644 90.6196 20.1667 90.6401 20.1693C91.2447 20.2457 91.7264 20.5565 92.0853 21.1016C92.4562 21.6651 92.6417 22.3696 92.6417 23.2149C92.6417 24.0446 92.4639 25.4535 92.1084 27.4416C91.7684 29.414 91.5984 30.9716 91.5984 32.1144C91.5984 33.2571 92.1239 34.1024 93.1749 34.6503C94.2415 35.1826 95.7408 35.4487 97.6729 35.4487C99.6204 35.4487 101.978 35.12 104.744 34.4625C104.897 34.1935 105.031 33.8914 105.147 33.556C105.3 33.1106 105.421 32.6065 105.509 32.0439C105.478 32.0392 105.447 32.0342 105.416 32.029C104.632 31.8943 104.091 31.5783 103.794 31.0812C103.485 30.5646 103.33 29.8758 103.33 29.0148ZM111.022 36.413L111.456 34.5123C113.568 25.2597 115.064 15.2029 115.94 4.33863C115.971 3.71502 116.311 3.26099 116.471 3.06422C116.687 2.79664 116.962 2.54354 117.245 2.31005L117.254 2.30271L117.263 2.2955C117.847 1.82949 118.624 1.35222 119.51 1.35222H132.224L131.782 3.2581C129.656 12.4296 128.152 22.4766 127.276 33.4029C127.245 34.0195 126.911 34.4729 126.757 34.6684C126.544 34.9375 126.274 35.1957 125.992 35.4368L125.981 35.4461L125.97 35.4551C125.395 35.9284 124.623 36.413 123.729 36.413H111.022ZM125.746 33.3119C126.579 22.9178 127.976 13.2988 129.939 4.45479C130.054 3.93502 130.171 3.41793 130.291 2.90351H119.51C119.154 2.90351 118.721 3.10701 118.211 3.51402C117.717 3.92103 117.469 4.22629 117.469 4.4298C116.637 14.7695 115.245 24.3964 113.295 33.3104C113.181 33.8299 113.066 34.347 112.948 34.8617H123.729C124.085 34.8617 124.51 34.6582 125.004 34.2512C125.499 33.8285 125.746 33.5154 125.746 33.3119ZM142.759 36.413L142.548 35.1141C140.854 24.7139 138.784 14.6126 136.337 4.80998L136.29 4.62283V4.4298C136.29 3.7593 136.656 3.27046 136.823 3.06422C137.04 2.79664 137.314 2.54354 137.598 2.31005C138.188 1.82464 138.964 1.35222 139.862 1.35222H152.273L152.421 2.73568C152.992 8.0494 153.534 11.8979 154.043 14.3218C154.566 16.8167 155.008 18.7437 155.369 20.1148C155.5 20.6119 155.63 21.0535 155.757 21.4432C156.841 17.0026 157.387 12.2325 157.389 7.12713L157.319 4.45021V4.4298C157.319 3.7593 157.685 3.27046 157.852 3.06422C158.069 2.79664 158.343 2.54354 158.627 2.31005L158.636 2.30271L158.645 2.2955C159.229 1.82949 160.006 1.35222 160.891 1.35222H171L169.628 3.69489C167.914 6.62164 165.092 12.1956 161.148 20.4639L161.237 20.4058L158.663 25.5376C157.695 27.4684 156.426 30.2605 154.854 33.9296L154.846 33.9489L154.837 33.9679C154.576 34.5334 154.054 35.043 153.594 35.4469L153.591 35.4496C153.052 35.9204 152.304 36.413 151.409 36.413H142.759ZM158.944 21.5242C162.694 13.6197 165.524 7.92987 167.433 4.45479C167.751 3.87633 168.044 3.35923 168.311 2.90351H160.891C160.536 2.90351 160.103 3.10701 159.593 3.51402C159.098 3.92103 158.851 4.22629 158.851 4.4298L158.921 7.10668C158.921 12.0247 158.426 16.657 157.435 21.0036C157.396 21.1749 157.356 21.3458 157.316 21.5162C157.313 21.5264 157.311 21.5365 157.309 21.5466C157.188 22.0518 157.061 22.5531 156.927 23.0505C157.048 23.0505 157.175 23.0268 157.31 22.9792C157.554 22.8931 157.82 22.729 158.109 22.487C158.155 22.4468 158.199 22.4074 158.242 22.3687C158.522 22.1136 158.723 21.8908 158.847 21.7003C158.888 21.6382 158.92 21.5795 158.944 21.5242ZM155.605 24.6018C155.439 24.4164 155.275 24.1785 155.113 23.8882C154.689 23.1256 154.281 22.001 153.889 20.5145C153.518 19.1057 153.07 17.1489 152.545 14.6442C152.019 12.1395 151.47 8.22596 150.899 2.90351H139.862C139.491 2.90351 139.059 3.10701 138.564 3.51402C138.069 3.92103 137.822 4.22629 137.822 4.4298C140.28 14.2763 142.359 24.4203 144.059 34.8617H151.409C151.749 34.8617 152.143 34.666 152.591 34.2746C153.055 33.8676 153.341 33.5467 153.449 33.3119C154.595 30.6384 155.585 28.4155 156.421 26.6432C156.451 26.5802 156.48 26.5179 156.509 26.4561C156.79 25.8635 157.053 25.3232 157.298 24.8351C157.035 25.0073 156.772 25.0934 156.509 25.0934C156.222 25.0934 155.941 24.9516 155.667 24.6679C155.646 24.6467 155.625 24.6247 155.605 24.6018Z"/>
</mask>
<path fill-rule="evenodd" clip-rule="evenodd" d="M2 36.413L2.5359 34.4486C4.56848 26.9978 6.08768 16.9748 7.07338 4.34121C7.10437 3.70013 7.46401 3.23881 7.62494 3.04618C7.84753 2.77977 8.12882 2.52795 8.42013 2.2955C9.00415 1.82949 9.78084 1.35222 10.6664 1.35222H23.3572L22.9155 3.25798C20.8077 12.3534 19.3157 22.0715 18.4426 32.4148C19.6342 31.3482 20.7837 30.1083 21.8897 28.6899C23.4524 26.6697 24.7723 24.5731 25.8525 22.3999L25.8563 22.3923L25.8601 22.3848C26.2832 21.5565 27.0082 20.9586 27.8065 20.5158C28.602 20.0746 29.452 19.7851 30.3274 19.7851H32.0445L31.8492 21.5128C31.4699 24.8685 31.1416 27.543 30.8645 29.531C30.5937 31.474 30.3583 32.8689 30.1511 33.5842L30.1253 33.6733L30.0892 33.7586C29.8341 34.3614 29.3913 34.8983 28.9091 35.3686C28.6506 35.6207 28.3658 35.8603 28.0578 36.0446C27.7619 36.2217 27.3365 36.413 26.8265 36.413H2ZM17.9002 34.8617C18.5296 34.3849 19.1464 33.8678 19.7505 33.3104C20.9117 32.2389 22.0261 31.0184 23.0937 29.6488C24.7166 27.5511 26.0923 25.3674 27.2206 23.0975C27.4525 22.6435 27.893 22.2365 28.5422 21.8765C28.6073 21.8403 28.6719 21.806 28.736 21.7735C29.3103 21.4821 29.8408 21.3364 30.3274 21.3364C30.2664 21.8765 30.2067 22.3987 30.1483 22.9029C29.4829 28.6532 28.9939 32.0681 28.6813 33.1475C28.5422 33.4763 28.264 33.8441 27.8466 34.2512C27.4293 34.6582 27.0892 34.8617 26.8265 34.8617H17.9002ZM16.8337 33.2884C17.6522 23.0893 19.065 13.4781 21.0721 4.45479C21.1875 3.93575 21.305 3.41866 21.4243 2.90351H10.6664C10.3109 2.90351 9.87814 3.10701 9.36807 3.51402C8.85799 3.92103 8.60296 4.22629 8.60296 4.4298C7.67962 16.2797 6.28498 25.9065 4.41902 33.3104C4.28585 33.8388 4.15027 34.3559 4.0123 34.8617H14.8166C15.1721 34.8617 15.5971 34.6503 16.0918 34.2277C16.5864 33.805 16.8337 33.4919 16.8337 33.2884ZM51.2298 36.413L51.0617 35.0547C50.8793 33.5821 50.6898 32.1396 50.493 30.7272L50.4417 30.8026L49.7226 30.8656C48.5978 30.9642 47.4852 31.0982 46.3849 31.2676L46.4389 33.2909V33.3119C46.4389 33.9912 46.0607 34.4862 45.8974 34.6866C45.6791 34.9546 45.4018 35.2117 45.112 35.4518L45.108 35.4551C44.5328 35.9284 43.7607 36.413 42.8669 36.413H32.7897L34.1514 34.0738C36.5511 29.9515 40.3098 22.3286 45.4426 11.1489L47.0399 7.67002L47.1023 7.85274C47.7902 6.40228 48.3878 5.062 48.8963 3.83108L48.9082 3.80217L48.9213 3.77378C49.1812 3.20985 49.6921 2.71001 50.1439 2.31558L50.1536 2.30711L50.1634 2.29881C50.6948 1.85032 51.4437 1.35222 52.3264 1.35222H61.0371L61.2171 2.69482C61.8467 7.39178 62.6924 12.6333 63.7552 18.421C64.8331 24.1907 65.8765 29.0207 66.8846 32.9189L66.9346 33.1121V33.3119C66.9346 33.9748 66.5754 34.4634 66.4134 34.6684C66.2009 34.9375 65.9308 35.1957 65.6487 35.4368L65.6378 35.4461L65.6268 35.4551C65.0369 35.9405 64.261 36.413 63.3626 36.413H51.2298ZM62.2497 18.7065C61.1832 12.8988 60.333 7.63109 59.6993 2.90351H52.3264C52.0018 2.90351 51.6077 3.09919 51.144 3.49054C50.6957 3.8819 50.4175 4.19498 50.3093 4.4298C49.6756 5.96392 48.9105 7.65458 48.014 9.50178C49.2778 14.428 50.392 19.9601 51.3566 26.0983C51.4156 26.4734 51.4739 26.8507 51.5318 27.2302C51.5481 27.3375 51.5644 27.445 51.5807 27.5527C51.9355 29.9029 52.2691 32.3392 52.5815 34.8617H63.3626C63.7335 34.8617 64.1663 34.6582 64.6609 34.2512C65.1556 33.8285 65.4029 33.5154 65.4029 33.3119C64.3827 29.367 63.3317 24.4986 62.2497 18.7065ZM49.7034 25.4588C49.2341 22.5447 48.7306 19.774 48.1933 17.1461C47.9951 18.4849 47.7425 20.0418 47.4361 21.8151L47.4357 21.8173C47.2389 22.9472 47.0744 23.9412 46.9419 24.8009C48.0081 25 48.9338 25.2175 49.7034 25.4588ZM45.2086 26.0796C45.3632 24.9212 45.6027 23.4106 45.9273 21.5477C46.2519 19.6692 46.5147 18.0412 46.7156 16.6636C46.7935 16.1681 46.8573 15.7152 46.9071 15.3048C46.9959 14.5741 47.0402 13.9782 47.0402 13.5171C47.0402 12.7813 46.9707 12.21 46.8316 11.803C46.5649 12.3838 46.3019 12.9551 46.0425 13.5171C45.8309 13.9753 45.6218 14.4273 45.4151 14.873C41.5471 23.2139 38.5246 29.3597 36.3477 33.3104C36.0383 33.8718 35.746 34.3889 35.4708 34.8617H42.8669C43.2224 34.8617 43.6475 34.6582 44.1421 34.2512C44.6522 33.8285 44.9072 33.5154 44.9072 33.3119L44.8376 30.7055V29.9541C46.3988 29.6723 47.9831 29.461 49.5906 29.3201C49.8533 28.9343 50.0044 28.3732 50.0438 27.637C50.0508 27.5069 50.0543 27.3713 50.0543 27.2302C50.0289 27.2195 50.0031 27.2089 49.9769 27.1982C48.9675 26.7882 47.3781 26.4153 45.2086 26.0796ZM91.0648 4.15085C89.0268 13.422 87.6126 23.1423 86.8222 33.3119C86.8222 33.5154 86.5749 33.8285 86.0803 34.2512C85.5857 34.6582 85.1529 34.8617 84.7819 34.8617H74.2559C74.3814 34.3496 74.5047 33.8325 74.6259 33.3104C76.5499 25.0234 77.9336 15.4826 78.777 4.68809C78.777 4.50024 79.0243 4.21064 79.5189 3.81928C80.0135 3.41227 80.4386 3.20094 80.7941 3.18528C84.5144 2.8713 87.5283 2.68327 89.8358 2.62119C90.4044 2.6059 90.9301 2.59825 91.4129 2.59825C91.2949 3.11437 91.1789 3.63191 91.0648 4.15085ZM80.6904 1.63737C85.3278 1.24633 88.9101 1.04696 91.4129 1.04696H93.3397L93.1508 1.87338C93.704 1.4281 94.4269 1 95.2616 1C98.2422 1 100.908 1.62539 103.202 2.93823L103.208 2.94135L103.213 2.94453C104.464 3.67385 105.466 4.67981 106.202 5.94179C106.961 7.24212 107.319 8.71087 107.319 10.3001C107.319 13.0676 106.035 15.374 103.729 17.1663C103.069 17.6794 102.353 18.1241 101.583 18.5032C101.97 18.7033 102.337 18.9275 102.684 19.1772C104.374 20.3782 105.186 22.1631 105.186 24.2951V24.349L104.862 29.0654C104.868 29.7251 104.992 30.0897 105.104 30.2771C105.107 30.2836 105.124 30.3114 105.197 30.3524C105.283 30.4007 105.448 30.4665 105.734 30.5094L107.265 30.7391L107.022 32.2871C106.849 33.3936 106.549 34.3962 106.072 35.2358L105.741 35.8191L105.094 35.9728C102.26 36.6463 99.7785 37 97.6729 37C95.636 37 93.8668 36.725 92.4979 36.0419L92.4859 36.0359L92.474 36.0296C91.7533 35.654 91.1317 35.1322 90.6963 34.432C90.2585 33.7277 90.0667 32.9351 90.0667 32.1144C90.0667 30.8397 90.2538 29.1802 90.5995 27.1747L90.6012 27.1651C90.957 25.1756 91.11 23.8903 91.11 23.2149C91.11 22.5997 90.9767 22.2141 90.8108 21.9621C90.68 21.7635 90.5799 21.7211 90.4295 21.7063L89.5762 21.622C89.0712 25.477 88.6631 29.4031 88.3518 33.4004C88.322 34.0182 87.9875 34.4726 87.8328 34.6684C87.6203 34.9375 87.3502 35.1957 87.0681 35.4368L87.0572 35.4461L87.0462 35.4551C86.4563 35.9405 85.6804 36.413 84.7819 36.413H72.2975L72.7693 34.488C74.8598 25.9572 76.3555 15.9974 77.2475 4.59788C77.2801 3.94763 77.6569 3.4874 77.8039 3.31522C78.0181 3.0644 78.2869 2.82622 78.5644 2.60592C79.1267 2.14511 79.8552 1.68651 80.6904 1.63737ZM90.1887 17.2921L90.3833 17.0542L90.6558 16.9096C91.6433 16.3858 92.4393 15.5644 93.0367 14.3672C93.6509 13.1363 93.9618 11.8038 93.9618 10.3471C93.9618 8.27576 93.3963 6.69222 92.3459 5.47395C91.5188 9.33404 90.7997 13.2734 90.1887 17.2921ZM103.33 29.0148L103.655 24.2951C103.655 22.6044 103.036 21.3207 101.8 20.4441C101.151 19.9762 100.392 19.603 99.5229 19.3245C98.7344 19.0719 97.8549 18.8972 96.8846 18.8004L94.7979 18.6126C95.5396 18.5604 96.248 18.4758 96.9233 18.3587L96.9276 18.358C97.8451 18.1987 98.7014 17.9796 99.4964 17.7004C100.749 17.2608 101.849 16.6726 102.797 15.9357C104.791 14.3859 105.788 12.5074 105.788 10.3001C105.788 8.95388 105.486 7.76415 104.883 6.73097C104.281 5.69779 103.469 4.88377 102.449 4.28891C100.424 3.13049 98.0284 2.55129 95.2616 2.55129C94.9061 2.55129 94.4811 2.76262 93.9864 3.18528C93.4918 3.60795 93.2445 3.93669 93.2445 4.1715C94.7438 5.75258 95.4935 7.81112 95.4935 10.3471C95.4935 12.0378 95.1302 13.611 94.4038 15.0669C93.6773 16.5227 92.6649 17.595 91.3665 18.2838C91.264 18.4091 91.1712 18.5384 91.0882 18.6719C90.8078 19.1221 90.6378 19.6189 90.5782 20.1623C90.599 20.1644 90.6196 20.1667 90.6401 20.1693C91.2447 20.2457 91.7264 20.5565 92.0853 21.1016C92.4562 21.6651 92.6417 22.3696 92.6417 23.2149C92.6417 24.0446 92.4639 25.4535 92.1084 27.4416C91.7684 29.414 91.5984 30.9716 91.5984 32.1144C91.5984 33.2571 92.1239 34.1024 93.1749 34.6503C94.2415 35.1826 95.7408 35.4487 97.6729 35.4487C99.6204 35.4487 101.978 35.12 104.744 34.4625C104.897 34.1935 105.031 33.8914 105.147 33.556C105.3 33.1106 105.421 32.6065 105.509 32.0439C105.478 32.0392 105.447 32.0342 105.416 32.029C104.632 31.8943 104.091 31.5783 103.794 31.0812C103.485 30.5646 103.33 29.8758 103.33 29.0148ZM111.022 36.413L111.456 34.5123C113.568 25.2597 115.064 15.2029 115.94 4.33863C115.971 3.71502 116.311 3.26099 116.471 3.06422C116.687 2.79664 116.962 2.54354 117.245 2.31005L117.254 2.30271L117.263 2.2955C117.847 1.82949 118.624 1.35222 119.51 1.35222H132.224L131.782 3.2581C129.656 12.4296 128.152 22.4766 127.276 33.4029C127.245 34.0195 126.911 34.4729 126.757 34.6684C126.544 34.9375 126.274 35.1957 125.992 35.4368L125.981 35.4461L125.97 35.4551C125.395 35.9284 124.623 36.413 123.729 36.413H111.022ZM125.746 33.3119C126.579 22.9178 127.976 13.2988 129.939 4.45479C130.054 3.93502 130.171 3.41793 130.291 2.90351H119.51C119.154 2.90351 118.721 3.10701 118.211 3.51402C117.717 3.92103 117.469 4.22629 117.469 4.4298C116.637 14.7695 115.245 24.3964 113.295 33.3104C113.181 33.8299 113.066 34.347 112.948 34.8617H123.729C124.085 34.8617 124.51 34.6582 125.004 34.2512C125.499 33.8285 125.746 33.5154 125.746 33.3119ZM142.759 36.413L142.548 35.1141C140.854 24.7139 138.784 14.6126 136.337 4.80998L136.29 4.62283V4.4298C136.29 3.7593 136.656 3.27046 136.823 3.06422C137.04 2.79664 137.314 2.54354 137.598 2.31005C138.188 1.82464 138.964 1.35222 139.862 1.35222H152.273L152.421 2.73568C152.992 8.0494 153.534 11.8979 154.043 14.3218C154.566 16.8167 155.008 18.7437 155.369 20.1148C155.5 20.6119 155.63 21.0535 155.757 21.4432C156.841 17.0026 157.387 12.2325 157.389 7.12713L157.319 4.45021V4.4298C157.319 3.7593 157.685 3.27046 157.852 3.06422C158.069 2.79664 158.343 2.54354 158.627 2.31005L158.636 2.30271L158.645 2.2955C159.229 1.82949 160.006 1.35222 160.891 1.35222H171L169.628 3.69489C167.914 6.62164 165.092 12.1956 161.148 20.4639L161.237 20.4058L158.663 25.5376C157.695 27.4684 156.426 30.2605 154.854 33.9296L154.846 33.9489L154.837 33.9679C154.576 34.5334 154.054 35.043 153.594 35.4469L153.591 35.4496C153.052 35.9204 152.304 36.413 151.409 36.413H142.759ZM158.944 21.5242C162.694 13.6197 165.524 7.92987 167.433 4.45479C167.751 3.87633 168.044 3.35923 168.311 2.90351H160.891C160.536 2.90351 160.103 3.10701 159.593 3.51402C159.098 3.92103 158.851 4.22629 158.851 4.4298L158.921 7.10668C158.921 12.0247 158.426 16.657 157.435 21.0036C157.396 21.1749 157.356 21.3458 157.316 21.5162C157.313 21.5264 157.311 21.5365 157.309 21.5466C157.188 22.0518 157.061 22.5531 156.927 23.0505C157.048 23.0505 157.175 23.0268 157.31 22.9792C157.554 22.8931 157.82 22.729 158.109 22.487C158.155 22.4468 158.199 22.4074 158.242 22.3687C158.522 22.1136 158.723 21.8908 158.847 21.7003C158.888 21.6382 158.92 21.5795 158.944 21.5242ZM155.605 24.6018C155.439 24.4164 155.275 24.1785 155.113 23.8882C154.689 23.1256 154.281 22.001 153.889 20.5145C153.518 19.1057 153.07 17.1489 152.545 14.6442C152.019 12.1395 151.47 8.22596 150.899 2.90351H139.862C139.491 2.90351 139.059 3.10701 138.564 3.51402C138.069 3.92103 137.822 4.22629 137.822 4.4298C140.28 14.2763 142.359 24.4203 144.059 34.8617H151.409C151.749 34.8617 152.143 34.666 152.591 34.2746C153.055 33.8676 153.341 33.5467 153.449 33.3119C154.595 30.6384 155.585 28.4155 156.421 26.6432C156.451 26.5802 156.48 26.5179 156.509 26.4561C156.79 25.8635 157.053 25.3232 157.298 24.8351C157.035 25.0073 156.772 25.0934 156.509 25.0934C156.222 25.0934 155.941 24.9516 155.667 24.6679C155.646 24.6467 155.625 24.6247 155.605 24.6018Z" fill="#FF014F"/>
<path fill-rule="evenodd" clip-rule="evenodd" d="M2 36.413L2.5359 34.4486C4.56848 26.9978 6.08768 16.9748 7.07338 4.34121C7.10437 3.70013 7.46401 3.23881 7.62494 3.04618C7.84753 2.77977 8.12882 2.52795 8.42013 2.2955C9.00415 1.82949 9.78084 1.35222 10.6664 1.35222H23.3572L22.9155 3.25798C20.8077 12.3534 19.3157 22.0715 18.4426 32.4148C19.6342 31.3482 20.7837 30.1083 21.8897 28.6899C23.4524 26.6697 24.7723 24.5731 25.8525 22.3999L25.8563 22.3923L25.8601 22.3848C26.2832 21.5565 27.0082 20.9586 27.8065 20.5158C28.602 20.0746 29.452 19.7851 30.3274 19.7851H32.0445L31.8492 21.5128C31.4699 24.8685 31.1416 27.543 30.8645 29.531C30.5937 31.474 30.3583 32.8689 30.1511 33.5842L30.1253 33.6733L30.0892 33.7586C29.8341 34.3614 29.3913 34.8983 28.9091 35.3686C28.6506 35.6207 28.3658 35.8603 28.0578 36.0446C27.7619 36.2217 27.3365 36.413 26.8265 36.413H2ZM17.9002 34.8617C18.5296 34.3849 19.1464 33.8678 19.7505 33.3104C20.9117 32.2389 22.0261 31.0184 23.0937 29.6488C24.7166 27.5511 26.0923 25.3674 27.2206 23.0975C27.4525 22.6435 27.893 22.2365 28.5422 21.8765C28.6073 21.8403 28.6719 21.806 28.736 21.7735C29.3103 21.4821 29.8408 21.3364 30.3274 21.3364C30.2664 21.8765 30.2067 22.3987 30.1483 22.9029C29.4829 28.6532 28.9939 32.0681 28.6813 33.1475C28.5422 33.4763 28.264 33.8441 27.8466 34.2512C27.4293 34.6582 27.0892 34.8617 26.8265 34.8617H17.9002ZM16.8337 33.2884C17.6522 23.0893 19.065 13.4781 21.0721 4.45479C21.1875 3.93575 21.305 3.41866 21.4243 2.90351H10.6664C10.3109 2.90351 9.87814 3.10701 9.36807 3.51402C8.85799 3.92103 8.60296 4.22629 8.60296 4.4298C7.67962 16.2797 6.28498 25.9065 4.41902 33.3104C4.28585 33.8388 4.15027 34.3559 4.0123 34.8617H14.8166C15.1721 34.8617 15.5971 34.6503 16.0918 34.2277C16.5864 33.805 16.8337 33.4919 16.8337 33.2884ZM51.2298 36.413L51.0617 35.0547C50.8793 33.5821 50.6898 32.1396 50.493 30.7272L50.4417 30.8026L49.7226 30.8656C48.5978 30.9642 47.4852 31.0982 46.3849 31.2676L46.4389 33.2909V33.3119C46.4389 33.9912 46.0607 34.4862 45.8974 34.6866C45.6791 34.9546 45.4018 35.2117 45.112 35.4518L45.108 35.4551C44.5328 35.9284 43.7607 36.413 42.8669 36.413H32.7897L34.1514 34.0738C36.5511 29.9515 40.3098 22.3286 45.4426 11.1489L47.0399 7.67002L47.1023 7.85274C47.7902 6.40228 48.3878 5.062 48.8963 3.83108L48.9082 3.80217L48.9213 3.77378C49.1812 3.20985 49.6921 2.71001 50.1439 2.31558L50.1536 2.30711L50.1634 2.29881C50.6948 1.85032 51.4437 1.35222 52.3264 1.35222H61.0371L61.2171 2.69482C61.8467 7.39178 62.6924 12.6333 63.7552 18.421C64.8331 24.1907 65.8765 29.0207 66.8846 32.9189L66.9346 33.1121V33.3119C66.9346 33.9748 66.5754 34.4634 66.4134 34.6684C66.2009 34.9375 65.9308 35.1957 65.6487 35.4368L65.6378 35.4461L65.6268 35.4551C65.0369 35.9405 64.261 36.413 63.3626 36.413H51.2298ZM62.2497 18.7065C61.1832 12.8988 60.333 7.63109 59.6993 2.90351H52.3264C52.0018 2.90351 51.6077 3.09919 51.144 3.49054C50.6957 3.8819 50.4175 4.19498 50.3093 4.4298C49.6756 5.96392 48.9105 7.65458 48.014 9.50178C49.2778 14.428 50.392 19.9601 51.3566 26.0983C51.4156 26.4734 51.4739 26.8507 51.5318 27.2302C51.5481 27.3375 51.5644 27.445 51.5807 27.5527C51.9355 29.9029 52.2691 32.3392 52.5815 34.8617H63.3626C63.7335 34.8617 64.1663 34.6582 64.6609 34.2512C65.1556 33.8285 65.4029 33.5154 65.4029 33.3119C64.3827 29.367 63.3317 24.4986 62.2497 18.7065ZM49.7034 25.4588C49.2341 22.5447 48.7306 19.774 48.1933 17.1461C47.9951 18.4849 47.7425 20.0418 47.4361 21.8151L47.4357 21.8173C47.2389 22.9472 47.0744 23.9412 46.9419 24.8009C48.0081 25 48.9338 25.2175 49.7034 25.4588ZM45.2086 26.0796C45.3632 24.9212 45.6027 23.4106 45.9273 21.5477C46.2519 19.6692 46.5147 18.0412 46.7156 16.6636C46.7935 16.1681 46.8573 15.7152 46.9071 15.3048C46.9959 14.5741 47.0402 13.9782 47.0402 13.5171C47.0402 12.7813 46.9707 12.21 46.8316 11.803C46.5649 12.3838 46.3019 12.9551 46.0425 13.5171C45.8309 13.9753 45.6218 14.4273 45.4151 14.873C41.5471 23.2139 38.5246 29.3597 36.3477 33.3104C36.0383 33.8718 35.746 34.3889 35.4708 34.8617H42.8669C43.2224 34.8617 43.6475 34.6582 44.1421 34.2512C44.6522 33.8285 44.9072 33.5154 44.9072 33.3119L44.8376 30.7055V29.9541C46.3988 29.6723 47.9831 29.461 49.5906 29.3201C49.8533 28.9343 50.0044 28.3732 50.0438 27.637C50.0508 27.5069 50.0543 27.3713 50.0543 27.2302C50.0289 27.2195 50.0031 27.2089 49.9769 27.1982C48.9675 26.7882 47.3781 26.4153 45.2086 26.0796ZM91.0648 4.15085C89.0268 13.422 87.6126 23.1423 86.8222 33.3119C86.8222 33.5154 86.5749 33.8285 86.0803 34.2512C85.5857 34.6582 85.1529 34.8617 84.7819 34.8617H74.2559C74.3814 34.3496 74.5047 33.8325 74.6259 33.3104C76.5499 25.0234 77.9336 15.4826 78.777 4.68809C78.777 4.50024 79.0243 4.21064 79.5189 3.81928C80.0135 3.41227 80.4386 3.20094 80.7941 3.18528C84.5144 2.8713 87.5283 2.68327 89.8358 2.62119C90.4044 2.6059 90.9301 2.59825 91.4129 2.59825C91.2949 3.11437 91.1789 3.63191 91.0648 4.15085ZM80.6904 1.63737C85.3278 1.24633 88.9101 1.04696 91.4129 1.04696H93.3397L93.1508 1.87338C93.704 1.4281 94.4269 1 95.2616 1C98.2422 1 100.908 1.62539 103.202 2.93823L103.208 2.94135L103.213 2.94453C104.464 3.67385 105.466 4.67981 106.202 5.94179C106.961 7.24212 107.319 8.71087 107.319 10.3001C107.319 13.0676 106.035 15.374 103.729 17.1663C103.069 17.6794 102.353 18.1241 101.583 18.5032C101.97 18.7033 102.337 18.9275 102.684 19.1772C104.374 20.3782 105.186 22.1631 105.186 24.2951V24.349L104.862 29.0654C104.868 29.7251 104.992 30.0897 105.104 30.2771C105.107 30.2836 105.124 30.3114 105.197 30.3524C105.283 30.4007 105.448 30.4665 105.734 30.5094L107.265 30.7391L107.022 32.2871C106.849 33.3936 106.549 34.3962 106.072 35.2358L105.741 35.8191L105.094 35.9728C102.26 36.6463 99.7785 37 97.6729 37C95.636 37 93.8668 36.725 92.4979 36.0419L92.4859 36.0359L92.474 36.0296C91.7533 35.654 91.1317 35.1322 90.6963 34.432C90.2585 33.7277 90.0667 32.9351 90.0667 32.1144C90.0667 30.8397 90.2538 29.1802 90.5995 27.1747L90.6012 27.1651C90.957 25.1756 91.11 23.8903 91.11 23.2149C91.11 22.5997 90.9767 22.2141 90.8108 21.9621C90.68 21.7635 90.5799 21.7211 90.4295 21.7063L89.5762 21.622C89.0712 25.477 88.6631 29.4031 88.3518 33.4004C88.322 34.0182 87.9875 34.4726 87.8328 34.6684C87.6203 34.9375 87.3502 35.1957 87.0681 35.4368L87.0572 35.4461L87.0462 35.4551C86.4563 35.9405 85.6804 36.413 84.7819 36.413H72.2975L72.7693 34.488C74.8598 25.9572 76.3555 15.9974 77.2475 4.59788C77.2801 3.94763 77.6569 3.4874 77.8039 3.31522C78.0181 3.0644 78.2869 2.82622 78.5644 2.60592C79.1267 2.14511 79.8552 1.68651 80.6904 1.63737ZM90.1887 17.2921L90.3833 17.0542L90.6558 16.9096C91.6433 16.3858 92.4393 15.5644 93.0367 14.3672C93.6509 13.1363 93.9618 11.8038 93.9618 10.3471C93.9618 8.27576 93.3963 6.69222 92.3459 5.47395C91.5188 9.33404 90.7997 13.2734 90.1887 17.2921ZM103.33 29.0148L103.655 24.2951C103.655 22.6044 103.036 21.3207 101.8 20.4441C101.151 19.9762 100.392 19.603 99.5229 19.3245C98.7344 19.0719 97.8549 18.8972 96.8846 18.8004L94.7979 18.6126C95.5396 18.5604 96.248 18.4758 96.9233 18.3587L96.9276 18.358C97.8451 18.1987 98.7014 17.9796 99.4964 17.7004C100.749 17.2608 101.849 16.6726 102.797 15.9357C104.791 14.3859 105.788 12.5074 105.788 10.3001C105.788 8.95388 105.486 7.76415 104.883 6.73097C104.281 5.69779 103.469 4.88377 102.449 4.28891C100.424 3.13049 98.0284 2.55129 95.2616 2.55129C94.9061 2.55129 94.4811 2.76262 93.9864 3.18528C93.4918 3.60795 93.2445 3.93669 93.2445 4.1715C94.7438 5.75258 95.4935 7.81112 95.4935 10.3471C95.4935 12.0378 95.1302 13.611 94.4038 15.0669C93.6773 16.5227 92.6649 17.595 91.3665 18.2838C91.264 18.4091 91.1712 18.5384 91.0882 18.6719C90.8078 19.1221 90.6378 19.6189 90.5782 20.1623C90.599 20.1644 90.6196 20.1667 90.6401 20.1693C91.2447 20.2457 91.7264 20.5565 92.0853 21.1016C92.4562 21.6651 92.6417 22.3696 92.6417 23.2149C92.6417 24.0446 92.4639 25.4535 92.1084 27.4416C91.7684 29.414 91.5984 30.9716 91.5984 32.1144C91.5984 33.2571 92.1239 34.1024 93.1749 34.6503C94.2415 35.1826 95.7408 35.4487 97.6729 35.4487C99.6204 35.4487 101.978 35.12 104.744 34.4625C104.897 34.1935 105.031 33.8914 105.147 33.556C105.3 33.1106 105.421 32.6065 105.509 32.0439C105.478 32.0392 105.447 32.0342 105.416 32.029C104.632 31.8943 104.091 31.5783 103.794 31.0812C103.485 30.5646 103.33 29.8758 103.33 29.0148ZM111.022 36.413L111.456 34.5123C113.568 25.2597 115.064 15.2029 115.94 4.33863C115.971 3.71502 116.311 3.26099 116.471 3.06422C116.687 2.79664 116.962 2.54354 117.245 2.31005L117.254 2.30271L117.263 2.2955C117.847 1.82949 118.624 1.35222 119.51 1.35222H132.224L131.782 3.2581C129.656 12.4296 128.152 22.4766 127.276 33.4029C127.245 34.0195 126.911 34.4729 126.757 34.6684C126.544 34.9375 126.274 35.1957 125.992 35.4368L125.981 35.4461L125.97 35.4551C125.395 35.9284 124.623 36.413 123.729 36.413H111.022ZM125.746 33.3119C126.579 22.9178 127.976 13.2988 129.939 4.45479C130.054 3.93502 130.171 3.41793 130.291 2.90351H119.51C119.154 2.90351 118.721 3.10701 118.211 3.51402C117.717 3.92103 117.469 4.22629 117.469 4.4298C116.637 14.7695 115.245 24.3964 113.295 33.3104C113.181 33.8299 113.066 34.347 112.948 34.8617H123.729C124.085 34.8617 124.51 34.6582 125.004 34.2512C125.499 33.8285 125.746 33.5154 125.746 33.3119ZM142.759 36.413L142.548 35.1141C140.854 24.7139 138.784 14.6126 136.337 4.80998L136.29 4.62283V4.4298C136.29 3.7593 136.656 3.27046 136.823 3.06422C137.04 2.79664 137.314 2.54354 137.598 2.31005C138.188 1.82464 138.964 1.35222 139.862 1.35222H152.273L152.421 2.73568C152.992 8.0494 153.534 11.8979 154.043 14.3218C154.566 16.8167 155.008 18.7437 155.369 20.1148C155.5 20.6119 155.63 21.0535 155.757 21.4432C156.841 17.0026 157.387 12.2325 157.389 7.12713L157.319 4.45021V4.4298C157.319 3.7593 157.685 3.27046 157.852 3.06422C158.069 2.79664 158.343 2.54354 158.627 2.31005L158.636 2.30271L158.645 2.2955C159.229 1.82949 160.006 1.35222 160.891 1.35222H171L169.628 3.69489C167.914 6.62164 165.092 12.1956 161.148 20.4639L161.237 20.4058L158.663 25.5376C157.695 27.4684 156.426 30.2605 154.854 33.9296L154.846 33.9489L154.837 33.9679C154.576 34.5334 154.054 35.043 153.594 35.4469L153.591 35.4496C153.052 35.9204 152.304 36.413 151.409 36.413H142.759ZM158.944 21.5242C162.694 13.6197 165.524 7.92987 167.433 4.45479C167.751 3.87633 168.044 3.35923 168.311 2.90351H160.891C160.536 2.90351 160.103 3.10701 159.593 3.51402C159.098 3.92103 158.851 4.22629 158.851 4.4298L158.921 7.10668C158.921 12.0247 158.426 16.657 157.435 21.0036C157.396 21.1749 157.356 21.3458 157.316 21.5162C157.313 21.5264 157.311 21.5365 157.309 21.5466C157.188 22.0518 157.061 22.5531 156.927 23.0505C157.048 23.0505 157.175 23.0268 157.31 22.9792C157.554 22.8931 157.82 22.729 158.109 22.487C158.155 22.4468 158.199 22.4074 158.242 22.3687C158.522 22.1136 158.723 21.8908 158.847 21.7003C158.888 21.6382 158.92 21.5795 158.944 21.5242ZM155.605 24.6018C155.439 24.4164 155.275 24.1785 155.113 23.8882C154.689 23.1256 154.281 22.001 153.889 20.5145C153.518 19.1057 153.07 17.1489 152.545 14.6442C152.019 12.1395 151.47 8.22596 150.899 2.90351H139.862C139.491 2.90351 139.059 3.10701 138.564 3.51402C138.069 3.92103 137.822 4.22629 137.822 4.4298C140.28 14.2763 142.359 24.4203 144.059 34.8617H151.409C151.749 34.8617 152.143 34.666 152.591 34.2746C153.055 33.8676 153.341 33.5467 153.449 33.3119C154.595 30.6384 155.585 28.4155 156.421 26.6432C156.451 26.5802 156.48 26.5179 156.509 26.4561C156.79 25.8635 157.053 25.3232 157.298 24.8351C157.035 25.0073 156.772 25.0934 156.509 25.0934C156.222 25.0934 155.941 24.9516 155.667 24.6679C155.646 24.6467 155.625 24.6247 155.605 24.6018Z" stroke="#FF014F" stroke-width="2" mask="url(#path-1-outside-1_704_873)"/>
</svg>
