<svg width="119" height="37" viewBox="0 0 119 37" fill="none" xmlns="http://www.w3.org/2000/svg">
<path d="M8.55 37H3.3C2.16667 37 1.41667 36.8167 1.05 36.45C0.716667 36.0833 0.55 35.3167 0.55 34.15V2.85C0.55 2.25 0.716667 1.76667 1.05 1.4C1.38333 1.03333 1.81667 0.849998 2.35 0.849998H8.55V37ZM10.55 0.849998H16.9C20.0667 0.849998 22.1667 1.6 23.2 3.1C24.2667 4.56667 24.8 7.53333 24.8 12C24.8 14.9667 24.4667 17.2833 23.8 18.95C23.1667 20.6167 22.3167 21.7333 21.25 22.3C20.1833 22.8333 18.7333 23.1 16.9 23.1H10.55V18.35H14.25C15.1167 18.35 15.6667 18.2333 15.9 18C16.1667 17.7667 16.3 17.4 16.3 16.9V7.1C16.3 6.56667 16.1667 6.18333 15.9 5.95C15.6667 5.71667 15.1167 5.6 14.25 5.6H10.55V0.849998ZM37.9434 0.849998V30.8C37.9434 31.3333 38.01 31.7167 38.1434 31.95C38.31 32.15 38.6934 32.25 39.2934 32.25H44.6934V37H37.3434C34.91 37 33.06 36.5833 31.7934 35.75C30.56 34.9167 29.9434 33.4667 29.9434 31.4V3.7C29.9434 2.53333 30.11 1.76667 30.4434 1.4C30.81 1.03333 31.56 0.849998 32.6934 0.849998H37.9434ZM46.1934 0.849998H51.4434C52.5767 0.849998 53.31 1.03333 53.6434 1.4C54.01 1.76667 54.1934 2.53333 54.1934 3.7V30.8C54.1934 31.3333 54.26 31.7167 54.3934 31.95C54.56 32.15 54.9434 32.25 55.5434 32.25H56.4434V37H53.5934C51.16 37 49.31 36.5833 48.0434 35.75C46.81 34.9167 46.1934 33.4667 46.1934 31.4V0.849998ZM70.3805 37H69.7805C68.4471 37 67.3305 36.9 66.4305 36.7C65.5638 36.5 64.7971 36.1 64.1305 35.5C63.4971 34.8667 62.9971 34.1667 62.6305 33.4C62.2971 32.6333 62.0305 31.4833 61.8305 29.95C61.5305 27.65 61.3805 24.5667 61.3805 20.7C61.3805 16.8 61.3971 14.05 61.4305 12.45C61.4971 10.85 61.6305 9.3 61.8305 7.8C62.0305 6.26666 62.2971 5.13333 62.6305 4.4C62.9971 3.63333 63.4971 2.95 64.1305 2.35C64.7971 1.71667 65.5638 1.31667 66.4305 1.15C67.3305 0.949998 68.4471 0.849998 69.7805 0.849998H70.3805V37ZM72.3805 0.849998H78.7305C81.1638 0.849998 82.9971 1.26666 84.2305 2.1C85.4971 2.93333 86.1305 4.38333 86.1305 6.45V10.95C86.1305 11.65 85.8971 12 85.4305 12H79.1305C78.6638 12 78.3805 11.9333 78.2805 11.8C78.1805 11.6667 78.1305 11.3833 78.1305 10.95V7.05C78.1305 6.51667 78.0471 6.15 77.8805 5.95C77.7471 5.71667 77.3805 5.6 76.7805 5.6H72.3805V0.849998ZM79.1305 25.85H85.4305C85.8971 25.85 86.1305 26.2 86.1305 26.9V31.4C86.1305 33.4667 85.4971 34.9167 84.2305 35.75C82.9971 36.5833 81.1638 37 78.7305 37H72.3805V32.25H76.7805C77.3805 32.25 77.7471 32.15 77.8805 31.95C78.0471 31.7167 78.1305 31.3333 78.1305 30.8V26.9C78.1305 26.4667 78.1805 26.1833 78.2805 26.05C78.3805 25.9167 78.6638 25.85 79.1305 25.85ZM100.199 0.849998V30.8C100.199 31.3333 100.266 31.7167 100.399 31.95C100.566 32.15 100.949 32.25 101.549 32.25H106.949V37H99.5992C97.1659 37 95.3159 36.5833 94.0492 35.75C92.8159 34.9167 92.1992 33.4667 92.1992 31.4V3.7C92.1992 2.53333 92.3659 1.76667 92.6992 1.4C93.0659 1.03333 93.8159 0.849998 94.9492 0.849998H100.199ZM108.449 0.849998H113.699C114.833 0.849998 115.566 1.03333 115.899 1.4C116.266 1.76667 116.449 2.53333 116.449 3.7V30.8C116.449 31.3333 116.516 31.7167 116.649 31.95C116.816 32.15 117.199 32.25 117.799 32.25H118.699V37H115.849C113.416 37 111.566 36.5833 110.299 35.75C109.066 34.9167 108.449 33.4667 108.449 31.4V0.849998Z" fill="#1D1C22"/>
</svg>
